<mxfile host="app.diagrams.net" modified="2023-05-18T07:57:09.162Z" agent="Mozilla/5.0 (Macintosh; Intel Mac OS X 10_15_7) AppleWebKit/537.36 (KHTML, like Gecko) Chrome/113.0.0.0 Safari/537.36" etag="2Hu37LvmrRCIB6y0JY9K" version="21.3.2" type="device">
  <diagram id="uoXIY-FMPBDUcFS4AX_N" name="Page-1">
    <mxGraphModel dx="6360" dy="4107" grid="0" gridSize="10" guides="1" tooltips="1" connect="1" arrows="1" fold="1" page="1" pageScale="1" pageWidth="2339" pageHeight="3300" math="0" shadow="0">
      <root>
        <mxCell id="0" />
        <mxCell id="1" parent="0" />
        <mxCell id="tWUmtZONVveXk1zDMaGu-1" value="" style="ellipse;html=1;shape=endState;fillColor=#000000;strokeColor=#CC0000;sketch=0;" parent="1" vertex="1">
          <mxGeometry x="1026" y="3033" width="140" height="140" as="geometry" />
        </mxCell>
        <mxCell id="tWUmtZONVveXk1zDMaGu-2" value="" style="ellipse;whiteSpace=wrap;html=1;aspect=fixed;sketch=0;strokeColor=#CC0000;fillColor=#000000;" parent="1" vertex="1">
          <mxGeometry x="1036" y="358" width="120" height="120" as="geometry" />
        </mxCell>
        <mxCell id="tWUmtZONVveXk1zDMaGu-5" value="" style="rhombus;whiteSpace=wrap;html=1;sketch=0;strokeColor=#000000;fillColor=#FFFFFF;strokeWidth=3;" parent="1" vertex="1">
          <mxGeometry x="810" y="1479" width="120" height="120" as="geometry" />
        </mxCell>
        <mxCell id="tWUmtZONVveXk1zDMaGu-6" value="" style="rhombus;whiteSpace=wrap;html=1;sketch=0;strokeColor=#000000;fillColor=#FFFFFF;strokeWidth=3;" parent="1" vertex="1">
          <mxGeometry x="810" y="2595" width="120" height="120" as="geometry" />
        </mxCell>
        <mxCell id="tWUmtZONVveXk1zDMaGu-8" value="" style="endArrow=classic;html=1;rounded=0;strokeWidth=3;exitX=0.5;exitY=1;exitDx=0;exitDy=0;entryX=0.5;entryY=0;entryDx=0;entryDy=0;" parent="1" source="tWUmtZONVveXk1zDMaGu-2" target="hsRt3fMsCCRmdXCvSqXc-1" edge="1">
          <mxGeometry width="50" height="50" relative="1" as="geometry">
            <mxPoint x="1142" y="552" as="sourcePoint" />
            <mxPoint x="1096" y="532" as="targetPoint" />
          </mxGeometry>
        </mxCell>
        <mxCell id="tWUmtZONVveXk1zDMaGu-11" value="" style="endArrow=classic;html=1;rounded=0;strokeColor=default;strokeWidth=3;exitX=0.5;exitY=1;exitDx=0;exitDy=0;entryX=0.5;entryY=0;entryDx=0;entryDy=0;" parent="1" source="hsRt3fMsCCRmdXCvSqXc-32" target="tWUmtZONVveXk1zDMaGu-1" edge="1">
          <mxGeometry width="50" height="50" relative="1" as="geometry">
            <mxPoint x="1096" y="2953" as="sourcePoint" />
            <mxPoint x="1102" y="2762" as="targetPoint" />
          </mxGeometry>
        </mxCell>
        <mxCell id="tWUmtZONVveXk1zDMaGu-12" value="[Выход]" style="edgeLabel;html=1;align=center;verticalAlign=middle;resizable=0;points=[];fontSize=23;" parent="tWUmtZONVveXk1zDMaGu-11" vertex="1" connectable="0">
          <mxGeometry x="-0.2661" relative="1" as="geometry">
            <mxPoint x="50" y="4" as="offset" />
          </mxGeometry>
        </mxCell>
        <mxCell id="tWUmtZONVveXk1zDMaGu-17" value="Выбрать раздел &quot;Информация об учащихся&quot;" style="rounded=1;whiteSpace=wrap;html=1;sketch=0;fontSize=23;strokeColor=#000000;strokeWidth=3;fillColor=#FFFFFF;arcSize=50;" parent="1" vertex="1">
          <mxGeometry x="1351.74" y="1664" width="240" height="90" as="geometry" />
        </mxCell>
        <mxCell id="tWUmtZONVveXk1zDMaGu-18" value="Выбрать раздел &quot;Вопросы&quot;" style="rounded=1;whiteSpace=wrap;html=1;sketch=0;fontSize=23;strokeColor=#000000;strokeWidth=3;fillColor=#FFFFFF;arcSize=50;" parent="1" vertex="1">
          <mxGeometry x="168.26" y="1664" width="240" height="90" as="geometry" />
        </mxCell>
        <mxCell id="tWUmtZONVveXk1zDMaGu-20" value="Составить вопросы на желаемую тему" style="rounded=1;whiteSpace=wrap;html=1;sketch=0;fontSize=23;strokeColor=#000000;strokeWidth=3;fillColor=#FFFFFF;arcSize=50;" parent="1" vertex="1">
          <mxGeometry x="168.26" y="1804" width="240" height="90" as="geometry" />
        </mxCell>
        <mxCell id="tWUmtZONVveXk1zDMaGu-22" value="Заполнить соответствующие таблицы в базе" style="rounded=1;whiteSpace=wrap;html=1;sketch=0;fontSize=23;strokeColor=#000000;strokeWidth=3;fillColor=#FFFFFF;arcSize=50;" parent="1" vertex="1">
          <mxGeometry x="1350.74" y="1794" width="240" height="90" as="geometry" />
        </mxCell>
        <mxCell id="tWUmtZONVveXk1zDMaGu-28" value="" style="endArrow=classic;html=1;rounded=0;strokeWidth=3;exitX=0;exitY=0.5;exitDx=0;exitDy=0;entryX=0.5;entryY=0;entryDx=0;entryDy=0;" parent="1" source="tWUmtZONVveXk1zDMaGu-5" target="tWUmtZONVveXk1zDMaGu-18" edge="1">
          <mxGeometry width="50" height="50" relative="1" as="geometry">
            <mxPoint x="658" y="1554" as="sourcePoint" />
            <mxPoint x="-552" y="1664" as="targetPoint" />
            <Array as="points">
              <mxPoint x="288" y="1535" />
            </Array>
          </mxGeometry>
        </mxCell>
        <mxCell id="tWUmtZONVveXk1zDMaGu-29" value="[Раздел &quot;Вопросы&quot;]" style="edgeLabel;html=1;align=center;verticalAlign=middle;resizable=0;points=[];fontSize=23;" parent="tWUmtZONVveXk1zDMaGu-28" vertex="1" connectable="0">
          <mxGeometry x="0.0978" y="1" relative="1" as="geometry">
            <mxPoint x="78" y="-18" as="offset" />
          </mxGeometry>
        </mxCell>
        <mxCell id="tWUmtZONVveXk1zDMaGu-32" value="" style="endArrow=classic;html=1;rounded=0;strokeWidth=3;exitX=1;exitY=0.5;exitDx=0;exitDy=0;entryX=0.5;entryY=0;entryDx=0;entryDy=0;" parent="1" source="tWUmtZONVveXk1zDMaGu-5" target="tWUmtZONVveXk1zDMaGu-17" edge="1">
          <mxGeometry width="50" height="50" relative="1" as="geometry">
            <mxPoint x="778" y="1554" as="sourcePoint" />
            <mxPoint x="1818" y="1664" as="targetPoint" />
            <Array as="points">
              <mxPoint x="1472" y="1539" />
            </Array>
          </mxGeometry>
        </mxCell>
        <mxCell id="tWUmtZONVveXk1zDMaGu-33" value="[Раздел &quot;Информация об учащихся&quot;]" style="edgeLabel;html=1;align=center;verticalAlign=middle;resizable=0;points=[];fontSize=23;" parent="tWUmtZONVveXk1zDMaGu-32" vertex="1" connectable="0">
          <mxGeometry x="0.0611" y="1" relative="1" as="geometry">
            <mxPoint x="-86" y="-19" as="offset" />
          </mxGeometry>
        </mxCell>
        <mxCell id="tWUmtZONVveXk1zDMaGu-35" value="" style="endArrow=classic;html=1;rounded=0;strokeWidth=3;exitX=0.5;exitY=1;exitDx=0;exitDy=0;entryX=0.5;entryY=0;entryDx=0;entryDy=0;" parent="1" source="tWUmtZONVveXk1zDMaGu-18" target="tWUmtZONVveXk1zDMaGu-20" edge="1">
          <mxGeometry width="50" height="50" relative="1" as="geometry">
            <mxPoint x="-371.74" y="1764" as="sourcePoint" />
            <mxPoint x="-371.74" y="1814" as="targetPoint" />
          </mxGeometry>
        </mxCell>
        <mxCell id="tWUmtZONVveXk1zDMaGu-37" value="" style="endArrow=classic;html=1;rounded=0;strokeWidth=3;exitX=0.5;exitY=1;exitDx=0;exitDy=0;entryX=0.5;entryY=0;entryDx=0;entryDy=0;" parent="1" target="tWUmtZONVveXk1zDMaGu-22" edge="1">
          <mxGeometry width="50" height="50" relative="1" as="geometry">
            <mxPoint x="1470.7399999999998" y="1754" as="sourcePoint" />
            <mxPoint x="840.74" y="1814" as="targetPoint" />
          </mxGeometry>
        </mxCell>
        <mxCell id="tWUmtZONVveXk1zDMaGu-41" value="" style="rhombus;whiteSpace=wrap;html=1;sketch=0;strokeColor=#000000;fillColor=#FFFFFF;strokeWidth=3;" parent="1" vertex="1">
          <mxGeometry x="228.26" y="1944" width="120" height="120" as="geometry" />
        </mxCell>
        <mxCell id="tWUmtZONVveXk1zDMaGu-42" value="" style="rhombus;whiteSpace=wrap;html=1;sketch=0;strokeColor=#000000;fillColor=#FFFFFF;strokeWidth=3;" parent="1" vertex="1">
          <mxGeometry x="228.26" y="2185" width="120" height="120" as="geometry" />
        </mxCell>
        <mxCell id="tWUmtZONVveXk1zDMaGu-48" value="" style="endArrow=classic;html=1;rounded=0;strokeWidth=3;exitX=0.5;exitY=1;exitDx=0;exitDy=0;entryX=0.5;entryY=0;entryDx=0;entryDy=0;" parent="1" source="tWUmtZONVveXk1zDMaGu-20" target="tWUmtZONVveXk1zDMaGu-41" edge="1">
          <mxGeometry width="50" height="50" relative="1" as="geometry">
            <mxPoint x="-371.74" y="1904" as="sourcePoint" />
            <mxPoint x="-371.74" y="1954" as="targetPoint" />
          </mxGeometry>
        </mxCell>
        <mxCell id="tWUmtZONVveXk1zDMaGu-59" value="Перейти к созданию вариантов ответа" style="rounded=1;whiteSpace=wrap;html=1;sketch=0;fontSize=23;strokeColor=#000000;strokeWidth=3;fillColor=#FFFFFF;arcSize=50;" parent="1" vertex="1">
          <mxGeometry x="18" y="2085" width="220" height="90" as="geometry" />
        </mxCell>
        <mxCell id="tWUmtZONVveXk1zDMaGu-60" value="Продолжить работу в разделе &quot;Вопросы&quot;" style="rounded=1;whiteSpace=wrap;html=1;sketch=0;fontSize=23;strokeColor=#000000;strokeWidth=3;fillColor=#FFFFFF;arcSize=50;" parent="1" vertex="1">
          <mxGeometry x="348.26" y="2085" width="210" height="90" as="geometry" />
        </mxCell>
        <mxCell id="tWUmtZONVveXk1zDMaGu-63" value="" style="endArrow=classic;html=1;rounded=0;strokeWidth=3;entryX=0.5;entryY=0;entryDx=0;entryDy=0;exitX=1;exitY=0.5;exitDx=0;exitDy=0;" parent="1" source="tWUmtZONVveXk1zDMaGu-41" target="tWUmtZONVveXk1zDMaGu-60" edge="1">
          <mxGeometry width="50" height="50" relative="1" as="geometry">
            <mxPoint x="400.76" y="2004" as="sourcePoint" />
            <mxPoint x="453.2600000000002" y="2083.999999999999" as="targetPoint" />
            <Array as="points">
              <mxPoint x="453.26" y="2004" />
            </Array>
          </mxGeometry>
        </mxCell>
        <mxCell id="tWUmtZONVveXk1zDMaGu-64" value="[Вопрос составлен&lt;br&gt;не корректно]" style="edgeLabel;html=1;align=center;verticalAlign=middle;resizable=0;points=[];fontSize=23;" parent="tWUmtZONVveXk1zDMaGu-63" vertex="1" connectable="0">
          <mxGeometry x="0.2679" y="-8" relative="1" as="geometry">
            <mxPoint x="33" y="-52" as="offset" />
          </mxGeometry>
        </mxCell>
        <mxCell id="tWUmtZONVveXk1zDMaGu-65" value="" style="endArrow=classic;html=1;rounded=0;strokeWidth=3;entryX=0;entryY=0.5;entryDx=0;entryDy=0;exitX=0.5;exitY=1;exitDx=0;exitDy=0;" parent="1" source="tWUmtZONVveXk1zDMaGu-59" target="tWUmtZONVveXk1zDMaGu-42" edge="1">
          <mxGeometry width="50" height="50" relative="1" as="geometry">
            <mxPoint x="128.26" y="2175" as="sourcePoint" />
            <mxPoint x="-431.74" y="2255" as="targetPoint" />
            <Array as="points">
              <mxPoint x="128.26" y="2245" />
            </Array>
          </mxGeometry>
        </mxCell>
        <mxCell id="tWUmtZONVveXk1zDMaGu-66" value="" style="endArrow=classic;html=1;rounded=0;strokeWidth=3;exitX=0.5;exitY=1;exitDx=0;exitDy=0;" parent="1" source="tWUmtZONVveXk1zDMaGu-60" edge="1">
          <mxGeometry width="50" height="50" relative="1" as="geometry">
            <mxPoint x="138.26" y="2185" as="sourcePoint" />
            <mxPoint x="348.26" y="2245" as="targetPoint" />
            <Array as="points">
              <mxPoint x="453.26" y="2245" />
            </Array>
          </mxGeometry>
        </mxCell>
        <mxCell id="tWUmtZONVveXk1zDMaGu-74" value="" style="endArrow=classic;html=1;rounded=0;strokeWidth=3;entryX=0.5;entryY=0;entryDx=0;entryDy=0;exitX=0;exitY=0.5;exitDx=0;exitDy=0;" parent="1" target="tWUmtZONVveXk1zDMaGu-59" edge="1">
          <mxGeometry width="50" height="50" relative="1" as="geometry">
            <mxPoint x="228.26" y="2004" as="sourcePoint" />
            <mxPoint x="128" y="2083.999999999999" as="targetPoint" />
            <Array as="points">
              <mxPoint x="128" y="2004" />
            </Array>
          </mxGeometry>
        </mxCell>
        <mxCell id="tWUmtZONVveXk1zDMaGu-75" value="[Вопрос составлен &lt;br&gt;корректно]" style="edgeLabel;html=1;align=center;verticalAlign=middle;resizable=0;points=[];fontSize=23;" parent="tWUmtZONVveXk1zDMaGu-74" vertex="1" connectable="0">
          <mxGeometry x="0.2679" y="-8" relative="1" as="geometry">
            <mxPoint x="2" y="-55" as="offset" />
          </mxGeometry>
        </mxCell>
        <mxCell id="tWUmtZONVveXk1zDMaGu-86" value="" style="endArrow=classic;html=1;rounded=0;strokeWidth=3;entryX=0;entryY=0.5;entryDx=0;entryDy=0;exitX=0.5;exitY=1;exitDx=0;exitDy=0;" parent="1" target="tWUmtZONVveXk1zDMaGu-6" edge="1">
          <mxGeometry width="50" height="50" relative="1" as="geometry">
            <mxPoint x="288.26" y="2304" as="sourcePoint" />
            <mxPoint x="810" y="2684" as="targetPoint" />
            <Array as="points">
              <mxPoint x="291" y="2654" />
            </Array>
          </mxGeometry>
        </mxCell>
        <mxCell id="tWUmtZONVveXk1zDMaGu-88" value="" style="endArrow=classic;html=1;rounded=0;strokeWidth=3;entryX=1;entryY=0.5;entryDx=0;entryDy=0;exitX=0.5;exitY=1;exitDx=0;exitDy=0;" parent="1" source="HbpmSYtU-FkxOWlLxbSP-25" target="tWUmtZONVveXk1zDMaGu-6" edge="1">
          <mxGeometry width="50" height="50" relative="1" as="geometry">
            <mxPoint x="1649" y="2339" as="sourcePoint" />
            <mxPoint x="1418" y="2418" as="targetPoint" />
            <Array as="points">
              <mxPoint x="1471" y="2655" />
            </Array>
          </mxGeometry>
        </mxCell>
        <mxCell id="tWUmtZONVveXk1zDMaGu-90" value="&lt;font style=&quot;font-size: 79px;&quot;&gt;Диаграмма деятельности&lt;/font&gt;" style="text;html=1;strokeColor=none;fillColor=none;align=center;verticalAlign=middle;whiteSpace=wrap;rounded=0;strokeWidth=13;" parent="1" vertex="1">
          <mxGeometry x="570" y="80" width="1220" height="170" as="geometry" />
        </mxCell>
        <mxCell id="tWUmtZONVveXk1zDMaGu-98" value="" style="rhombus;whiteSpace=wrap;html=1;sketch=0;strokeColor=#000000;fillColor=#FFFFFF;strokeWidth=3;" parent="1" vertex="1">
          <mxGeometry x="810" y="963" width="120" height="120" as="geometry" />
        </mxCell>
        <mxCell id="tWUmtZONVveXk1zDMaGu-100" value="Начать работу в приложении" style="rounded=1;whiteSpace=wrap;html=1;sketch=0;fontSize=23;strokeColor=#000000;strokeWidth=3;fillColor=#FFFFFF;arcSize=50;" parent="1" vertex="1">
          <mxGeometry x="765" y="1136" width="210" height="90" as="geometry" />
        </mxCell>
        <mxCell id="REqLlEheHA_K7ZEJ_UPA-1" style="edgeStyle=orthogonalEdgeStyle;rounded=0;orthogonalLoop=1;jettySize=auto;html=1;exitX=0.5;exitY=0;exitDx=0;exitDy=0;entryX=1;entryY=0.5;entryDx=0;entryDy=0;strokeWidth=3;" parent="1" source="tWUmtZONVveXk1zDMaGu-101" target="rbqqUuuyFxj4_pDTY92s-1" edge="1">
          <mxGeometry relative="1" as="geometry">
            <Array as="points">
              <mxPoint x="1153" y="885" />
              <mxPoint x="1153" y="708" />
            </Array>
          </mxGeometry>
        </mxCell>
        <mxCell id="tWUmtZONVveXk1zDMaGu-101" value="Повторить попытку ввода данных" style="rounded=1;whiteSpace=wrap;html=1;sketch=0;fontSize=23;strokeColor=#000000;strokeWidth=3;fillColor=#FFFFFF;arcSize=50;" parent="1" vertex="1">
          <mxGeometry x="1042" y="885" width="210" height="90" as="geometry" />
        </mxCell>
        <mxCell id="tWUmtZONVveXk1zDMaGu-102" value="" style="endArrow=classic;html=1;rounded=0;strokeWidth=3;entryX=0.5;entryY=0;entryDx=0;entryDy=0;exitX=0.5;exitY=1;exitDx=0;exitDy=0;" parent="1" source="tWUmtZONVveXk1zDMaGu-98" target="tWUmtZONVveXk1zDMaGu-100" edge="1">
          <mxGeometry width="50" height="50" relative="1" as="geometry">
            <mxPoint x="810" y="895" as="sourcePoint" />
            <mxPoint x="700" y="935" as="targetPoint" />
            <Array as="points" />
          </mxGeometry>
        </mxCell>
        <mxCell id="tWUmtZONVveXk1zDMaGu-103" value="[Данные введены верно]" style="edgeLabel;html=1;align=center;verticalAlign=middle;resizable=0;points=[];fontSize=23;" parent="tWUmtZONVveXk1zDMaGu-102" vertex="1" connectable="0">
          <mxGeometry x="0.2679" y="-8" relative="1" as="geometry">
            <mxPoint x="-158" y="-17" as="offset" />
          </mxGeometry>
        </mxCell>
        <mxCell id="tWUmtZONVveXk1zDMaGu-104" value="" style="endArrow=classic;html=1;rounded=0;strokeWidth=3;exitX=1;exitY=0.5;exitDx=0;exitDy=0;entryX=0.5;entryY=1;entryDx=0;entryDy=0;" parent="1" source="tWUmtZONVveXk1zDMaGu-98" target="tWUmtZONVveXk1zDMaGu-101" edge="1">
          <mxGeometry width="50" height="50" relative="1" as="geometry">
            <mxPoint x="820" y="905" as="sourcePoint" />
            <mxPoint x="1069" y="922" as="targetPoint" />
            <Array as="points">
              <mxPoint x="1147" y="1023" />
            </Array>
          </mxGeometry>
        </mxCell>
        <mxCell id="tWUmtZONVveXk1zDMaGu-105" value="[Данные введены &lt;br&gt;не верно]" style="edgeLabel;html=1;align=center;verticalAlign=middle;resizable=0;points=[];fontSize=23;" parent="tWUmtZONVveXk1zDMaGu-104" vertex="1" connectable="0">
          <mxGeometry x="0.2679" y="-8" relative="1" as="geometry">
            <mxPoint x="-56" y="29" as="offset" />
          </mxGeometry>
        </mxCell>
        <mxCell id="tWUmtZONVveXk1zDMaGu-108" value="" style="endArrow=classic;html=1;rounded=0;strokeWidth=3;entryX=0.5;entryY=0;entryDx=0;entryDy=0;exitX=0.5;exitY=1;exitDx=0;exitDy=0;" parent="1" source="hsRt3fMsCCRmdXCvSqXc-3" target="tWUmtZONVveXk1zDMaGu-98" edge="1">
          <mxGeometry width="50" height="50" relative="1" as="geometry">
            <mxPoint x="872" y="816" as="sourcePoint" />
            <mxPoint x="882" y="606" as="targetPoint" />
            <Array as="points" />
          </mxGeometry>
        </mxCell>
        <mxCell id="tWUmtZONVveXk1zDMaGu-110" value="" style="endArrow=classic;html=1;rounded=0;strokeWidth=3;entryX=0.5;entryY=0;entryDx=0;entryDy=0;exitX=0.5;exitY=1;exitDx=0;exitDy=0;" parent="1" source="tWUmtZONVveXk1zDMaGu-100" target="hsRt3fMsCCRmdXCvSqXc-24" edge="1">
          <mxGeometry width="50" height="50" relative="1" as="geometry">
            <mxPoint x="870" y="1138" as="sourcePoint" />
            <mxPoint x="870" y="1285" as="targetPoint" />
            <Array as="points" />
          </mxGeometry>
        </mxCell>
        <mxCell id="tWUmtZONVveXk1zDMaGu-111" value="" style="endArrow=classic;html=1;rounded=0;strokeWidth=3;entryX=0.5;entryY=0;entryDx=0;entryDy=0;exitX=0.5;exitY=1;exitDx=0;exitDy=0;" parent="1" source="hsRt3fMsCCRmdXCvSqXc-24" target="tWUmtZONVveXk1zDMaGu-5" edge="1">
          <mxGeometry width="50" height="50" relative="1" as="geometry">
            <mxPoint x="870" y="1375" as="sourcePoint" />
            <mxPoint x="944" y="1410" as="targetPoint" />
            <Array as="points" />
          </mxGeometry>
        </mxCell>
        <mxCell id="HbpmSYtU-FkxOWlLxbSP-1" value="" style="endArrow=classic;html=1;rounded=0;strokeWidth=3;exitX=0.5;exitY=1;exitDx=0;exitDy=0;entryX=0.5;entryY=0;entryDx=0;entryDy=0;" parent="1" source="tWUmtZONVveXk1zDMaGu-5" target="HbpmSYtU-FkxOWlLxbSP-3" edge="1">
          <mxGeometry width="50" height="50" relative="1" as="geometry">
            <mxPoint x="1000" y="1754" as="sourcePoint" />
            <mxPoint x="871" y="1659" as="targetPoint" />
            <Array as="points" />
          </mxGeometry>
        </mxCell>
        <mxCell id="HbpmSYtU-FkxOWlLxbSP-2" value="[Раздел &quot;Ответы&quot;]" style="edgeLabel;html=1;align=center;verticalAlign=middle;resizable=0;points=[];fontSize=23;" parent="HbpmSYtU-FkxOWlLxbSP-1" vertex="1" connectable="0">
          <mxGeometry x="0.0978" y="1" relative="1" as="geometry">
            <mxPoint x="110" y="-12" as="offset" />
          </mxGeometry>
        </mxCell>
        <mxCell id="HbpmSYtU-FkxOWlLxbSP-3" value="Выбрать раздел &quot;Оветы&quot;" style="rounded=1;whiteSpace=wrap;html=1;sketch=0;fontSize=23;strokeColor=#000000;strokeWidth=3;fillColor=#FFFFFF;arcSize=50;" parent="1" vertex="1">
          <mxGeometry x="750" y="1664" width="240" height="90" as="geometry" />
        </mxCell>
        <mxCell id="HbpmSYtU-FkxOWlLxbSP-4" value="Изучить созданные вопросы" style="rounded=1;whiteSpace=wrap;html=1;sketch=0;fontSize=23;strokeColor=#000000;strokeWidth=3;fillColor=#FFFFFF;arcSize=50;" parent="1" vertex="1">
          <mxGeometry x="750" y="1804" width="240" height="90" as="geometry" />
        </mxCell>
        <mxCell id="HbpmSYtU-FkxOWlLxbSP-5" value="" style="endArrow=classic;html=1;rounded=0;strokeWidth=3;exitX=0.5;exitY=1;exitDx=0;exitDy=0;entryX=0.5;entryY=0;entryDx=0;entryDy=0;" parent="1" source="HbpmSYtU-FkxOWlLxbSP-3" target="HbpmSYtU-FkxOWlLxbSP-4" edge="1">
          <mxGeometry width="50" height="50" relative="1" as="geometry">
            <mxPoint x="311.26" y="1764" as="sourcePoint" />
            <mxPoint x="311.26" y="1814" as="targetPoint" />
          </mxGeometry>
        </mxCell>
        <mxCell id="HbpmSYtU-FkxOWlLxbSP-6" value="Добавить варианты ответов" style="rounded=1;whiteSpace=wrap;html=1;sketch=0;fontSize=23;strokeColor=#000000;strokeWidth=3;fillColor=#FFFFFF;arcSize=50;" parent="1" vertex="1">
          <mxGeometry x="750" y="1959" width="240" height="90" as="geometry" />
        </mxCell>
        <mxCell id="HbpmSYtU-FkxOWlLxbSP-7" value="" style="endArrow=classic;html=1;rounded=0;strokeWidth=3;exitX=0.5;exitY=1;exitDx=0;exitDy=0;entryX=0.5;entryY=0;entryDx=0;entryDy=0;" parent="1" source="HbpmSYtU-FkxOWlLxbSP-4" target="HbpmSYtU-FkxOWlLxbSP-6" edge="1">
          <mxGeometry width="50" height="50" relative="1" as="geometry">
            <mxPoint x="880" y="1764" as="sourcePoint" />
            <mxPoint x="880" y="1814" as="targetPoint" />
          </mxGeometry>
        </mxCell>
        <mxCell id="HbpmSYtU-FkxOWlLxbSP-11" value="" style="endArrow=classic;html=1;rounded=0;strokeWidth=3;exitX=0.5;exitY=1;exitDx=0;exitDy=0;entryX=0.5;entryY=0;entryDx=0;entryDy=0;" parent="1" source="HbpmSYtU-FkxOWlLxbSP-6" target="HbpmSYtU-FkxOWlLxbSP-12" edge="1">
          <mxGeometry width="50" height="50" relative="1" as="geometry">
            <mxPoint x="880" y="2088.0000000000005" as="sourcePoint" />
            <mxPoint x="871" y="2119" as="targetPoint" />
          </mxGeometry>
        </mxCell>
        <mxCell id="HbpmSYtU-FkxOWlLxbSP-12" value="" style="rhombus;whiteSpace=wrap;html=1;sketch=0;strokeColor=#000000;fillColor=#FFFFFF;strokeWidth=3;" parent="1" vertex="1">
          <mxGeometry x="810" y="2109" width="120" height="120" as="geometry" />
        </mxCell>
        <mxCell id="HbpmSYtU-FkxOWlLxbSP-13" value="" style="endArrow=classic;html=1;rounded=0;strokeWidth=3;entryX=0.5;entryY=0;entryDx=0;entryDy=0;exitX=0;exitY=0.5;exitDx=0;exitDy=0;" parent="1" source="HbpmSYtU-FkxOWlLxbSP-12" target="HbpmSYtU-FkxOWlLxbSP-15" edge="1">
          <mxGeometry width="50" height="50" relative="1" as="geometry">
            <mxPoint x="810" y="2169.0000000000005" as="sourcePoint" />
            <mxPoint x="709.74" y="2250" as="targetPoint" />
            <Array as="points">
              <mxPoint x="709.74" y="2169" />
            </Array>
          </mxGeometry>
        </mxCell>
        <mxCell id="HbpmSYtU-FkxOWlLxbSP-14" value="[Ответ составлен&lt;br&gt;корректно]" style="edgeLabel;html=1;align=center;verticalAlign=middle;resizable=0;points=[];fontSize=23;" parent="HbpmSYtU-FkxOWlLxbSP-13" vertex="1" connectable="0">
          <mxGeometry x="0.2679" y="-8" relative="1" as="geometry">
            <mxPoint x="2" y="-55" as="offset" />
          </mxGeometry>
        </mxCell>
        <mxCell id="HbpmSYtU-FkxOWlLxbSP-15" value="Перейти к главному окну" style="rounded=1;whiteSpace=wrap;html=1;sketch=0;fontSize=23;strokeColor=#000000;strokeWidth=3;fillColor=#FFFFFF;arcSize=50;" parent="1" vertex="1">
          <mxGeometry x="600" y="2249" width="220" height="90" as="geometry" />
        </mxCell>
        <mxCell id="HbpmSYtU-FkxOWlLxbSP-16" value="" style="endArrow=classic;html=1;rounded=0;strokeWidth=3;entryX=0.5;entryY=0;entryDx=0;entryDy=0;exitX=1;exitY=0.5;exitDx=0;exitDy=0;" parent="1" source="HbpmSYtU-FkxOWlLxbSP-12" target="HbpmSYtU-FkxOWlLxbSP-18" edge="1">
          <mxGeometry width="50" height="50" relative="1" as="geometry">
            <mxPoint x="929.9999999999998" y="2168.0000000000005" as="sourcePoint" />
            <mxPoint x="1034.9999999999998" y="2249" as="targetPoint" />
            <Array as="points">
              <mxPoint x="1035" y="2168" />
            </Array>
          </mxGeometry>
        </mxCell>
        <mxCell id="HbpmSYtU-FkxOWlLxbSP-17" value="[Ответ составлен&lt;br&gt;не корректно]" style="edgeLabel;html=1;align=center;verticalAlign=middle;resizable=0;points=[];fontSize=23;" parent="HbpmSYtU-FkxOWlLxbSP-16" vertex="1" connectable="0">
          <mxGeometry x="0.2679" y="-8" relative="1" as="geometry">
            <mxPoint x="33" y="-52" as="offset" />
          </mxGeometry>
        </mxCell>
        <mxCell id="HbpmSYtU-FkxOWlLxbSP-18" value="Продолжить работу в разделе &quot;Ответы&quot;" style="rounded=1;whiteSpace=wrap;html=1;sketch=0;fontSize=23;strokeColor=#000000;strokeWidth=3;fillColor=#FFFFFF;arcSize=50;" parent="1" vertex="1">
          <mxGeometry x="925" y="2249" width="220" height="90" as="geometry" />
        </mxCell>
        <mxCell id="HbpmSYtU-FkxOWlLxbSP-19" value="" style="endArrow=classic;html=1;rounded=0;strokeWidth=3;entryX=0;entryY=0.5;entryDx=0;entryDy=0;exitX=0.5;exitY=1;exitDx=0;exitDy=0;" parent="1" source="HbpmSYtU-FkxOWlLxbSP-15" target="HbpmSYtU-FkxOWlLxbSP-21" edge="1">
          <mxGeometry width="50" height="50" relative="1" as="geometry">
            <mxPoint x="709.74" y="2339" as="sourcePoint" />
            <mxPoint x="810" y="2409" as="targetPoint" />
            <Array as="points">
              <mxPoint x="710" y="2409" />
            </Array>
          </mxGeometry>
        </mxCell>
        <mxCell id="HbpmSYtU-FkxOWlLxbSP-20" value="" style="endArrow=classic;html=1;rounded=0;strokeWidth=3;exitX=0.5;exitY=1;exitDx=0;exitDy=0;entryX=1;entryY=0.5;entryDx=0;entryDy=0;" parent="1" source="HbpmSYtU-FkxOWlLxbSP-18" target="HbpmSYtU-FkxOWlLxbSP-21" edge="1">
          <mxGeometry width="50" height="50" relative="1" as="geometry">
            <mxPoint x="1034.9999999999998" y="2339" as="sourcePoint" />
            <mxPoint x="929.9999999999998" y="2409" as="targetPoint" />
            <Array as="points">
              <mxPoint x="1035" y="2409" />
            </Array>
          </mxGeometry>
        </mxCell>
        <mxCell id="HbpmSYtU-FkxOWlLxbSP-21" value="" style="rhombus;whiteSpace=wrap;html=1;sketch=0;strokeColor=#000000;fillColor=#FFFFFF;strokeWidth=3;" parent="1" vertex="1">
          <mxGeometry x="810" y="2349" width="120" height="120" as="geometry" />
        </mxCell>
        <mxCell id="HbpmSYtU-FkxOWlLxbSP-23" value="" style="endArrow=classic;html=1;rounded=0;strokeWidth=3;exitX=0.5;exitY=1;exitDx=0;exitDy=0;entryX=0.5;entryY=0;entryDx=0;entryDy=0;" parent="1" source="HbpmSYtU-FkxOWlLxbSP-21" target="tWUmtZONVveXk1zDMaGu-6" edge="1">
          <mxGeometry width="50" height="50" relative="1" as="geometry">
            <mxPoint x="922" y="2059" as="sourcePoint" />
            <mxPoint x="922" y="2119" as="targetPoint" />
          </mxGeometry>
        </mxCell>
        <mxCell id="HbpmSYtU-FkxOWlLxbSP-24" value="" style="rhombus;whiteSpace=wrap;html=1;sketch=0;strokeColor=#000000;fillColor=#FFFFFF;strokeWidth=3;" parent="1" vertex="1">
          <mxGeometry x="1410.8700000000001" y="1934" width="120" height="120" as="geometry" />
        </mxCell>
        <mxCell id="HbpmSYtU-FkxOWlLxbSP-25" value="" style="rhombus;whiteSpace=wrap;html=1;sketch=0;strokeColor=#000000;fillColor=#FFFFFF;strokeWidth=3;" parent="1" vertex="1">
          <mxGeometry x="1410.87" y="2175" width="120" height="120" as="geometry" />
        </mxCell>
        <mxCell id="HbpmSYtU-FkxOWlLxbSP-26" value="" style="endArrow=classic;html=1;rounded=0;strokeWidth=3;exitX=0.5;exitY=1;exitDx=0;exitDy=0;entryX=0.5;entryY=0;entryDx=0;entryDy=0;" parent="1" target="HbpmSYtU-FkxOWlLxbSP-24" edge="1">
          <mxGeometry width="50" height="50" relative="1" as="geometry">
            <mxPoint x="1470.8700000000001" y="1884" as="sourcePoint" />
            <mxPoint x="810.8700000000001" y="1944" as="targetPoint" />
          </mxGeometry>
        </mxCell>
        <mxCell id="HbpmSYtU-FkxOWlLxbSP-27" value="Перейти к главному окну" style="rounded=1;whiteSpace=wrap;html=1;sketch=0;fontSize=23;strokeColor=#000000;strokeWidth=3;fillColor=#FFFFFF;arcSize=50;" parent="1" vertex="1">
          <mxGeometry x="1200.61" y="2075" width="220" height="90" as="geometry" />
        </mxCell>
        <mxCell id="HbpmSYtU-FkxOWlLxbSP-28" value="&lt;font style=&quot;font-size: 18px;&quot;&gt;Продолжить работу в разделе &quot;Информация об учащихся&quot;&lt;/font&gt;" style="rounded=1;whiteSpace=wrap;html=1;sketch=0;fontSize=23;strokeColor=#000000;strokeWidth=3;fillColor=#FFFFFF;arcSize=50;" parent="1" vertex="1">
          <mxGeometry x="1530.8700000000001" y="2075" width="210" height="90" as="geometry" />
        </mxCell>
        <mxCell id="HbpmSYtU-FkxOWlLxbSP-29" value="" style="endArrow=classic;html=1;rounded=0;strokeWidth=3;entryX=0.5;entryY=0;entryDx=0;entryDy=0;exitX=1;exitY=0.5;exitDx=0;exitDy=0;" parent="1" source="HbpmSYtU-FkxOWlLxbSP-24" target="HbpmSYtU-FkxOWlLxbSP-28" edge="1">
          <mxGeometry width="50" height="50" relative="1" as="geometry">
            <mxPoint x="1583.3700000000001" y="1994" as="sourcePoint" />
            <mxPoint x="1635.87" y="2073.999999999999" as="targetPoint" />
            <Array as="points">
              <mxPoint x="1635.87" y="1994" />
            </Array>
          </mxGeometry>
        </mxCell>
        <mxCell id="HbpmSYtU-FkxOWlLxbSP-30" value="[Информация не&lt;br&gt;верна]" style="edgeLabel;html=1;align=center;verticalAlign=middle;resizable=0;points=[];fontSize=23;" parent="HbpmSYtU-FkxOWlLxbSP-29" vertex="1" connectable="0">
          <mxGeometry x="0.2679" y="-8" relative="1" as="geometry">
            <mxPoint x="33" y="-48" as="offset" />
          </mxGeometry>
        </mxCell>
        <mxCell id="HbpmSYtU-FkxOWlLxbSP-31" value="" style="endArrow=classic;html=1;rounded=0;strokeWidth=3;entryX=0;entryY=0.5;entryDx=0;entryDy=0;exitX=0.5;exitY=1;exitDx=0;exitDy=0;" parent="1" source="HbpmSYtU-FkxOWlLxbSP-27" target="HbpmSYtU-FkxOWlLxbSP-25" edge="1">
          <mxGeometry width="50" height="50" relative="1" as="geometry">
            <mxPoint x="1310.8700000000001" y="2165" as="sourcePoint" />
            <mxPoint x="1410.8699999999997" y="2235" as="targetPoint" />
            <Array as="points">
              <mxPoint x="1310.8700000000001" y="2235" />
            </Array>
          </mxGeometry>
        </mxCell>
        <mxCell id="HbpmSYtU-FkxOWlLxbSP-32" value="" style="endArrow=classic;html=1;rounded=0;strokeWidth=3;exitX=0.5;exitY=1;exitDx=0;exitDy=0;entryX=1;entryY=0.5;entryDx=0;entryDy=0;" parent="1" source="HbpmSYtU-FkxOWlLxbSP-28" target="HbpmSYtU-FkxOWlLxbSP-25" edge="1">
          <mxGeometry width="50" height="50" relative="1" as="geometry">
            <mxPoint x="1320.8700000000001" y="2175" as="sourcePoint" />
            <mxPoint x="1530.8700000000001" y="2235" as="targetPoint" />
            <Array as="points">
              <mxPoint x="1635.87" y="2235" />
            </Array>
          </mxGeometry>
        </mxCell>
        <mxCell id="HbpmSYtU-FkxOWlLxbSP-33" value="" style="endArrow=classic;html=1;rounded=0;strokeWidth=3;entryX=0.5;entryY=0;entryDx=0;entryDy=0;exitX=0;exitY=0.5;exitDx=0;exitDy=0;" parent="1" target="HbpmSYtU-FkxOWlLxbSP-27" edge="1">
          <mxGeometry width="50" height="50" relative="1" as="geometry">
            <mxPoint x="1410.8700000000001" y="1994" as="sourcePoint" />
            <mxPoint x="1310.61" y="2073.999999999999" as="targetPoint" />
            <Array as="points">
              <mxPoint x="1310.61" y="1994" />
            </Array>
          </mxGeometry>
        </mxCell>
        <mxCell id="HbpmSYtU-FkxOWlLxbSP-34" value="[Информация&lt;br&gt;верна]" style="edgeLabel;html=1;align=center;verticalAlign=middle;resizable=0;points=[];fontSize=23;" parent="HbpmSYtU-FkxOWlLxbSP-33" vertex="1" connectable="0">
          <mxGeometry x="0.2679" y="-8" relative="1" as="geometry">
            <mxPoint x="31" y="-50" as="offset" />
          </mxGeometry>
        </mxCell>
        <mxCell id="rbqqUuuyFxj4_pDTY92s-4" style="edgeStyle=orthogonalEdgeStyle;rounded=0;orthogonalLoop=1;jettySize=auto;html=1;exitX=0;exitY=0.5;exitDx=0;exitDy=0;entryX=0.5;entryY=0;entryDx=0;entryDy=0;strokeWidth=3;" edge="1" parent="1" source="hsRt3fMsCCRmdXCvSqXc-1" target="rbqqUuuyFxj4_pDTY92s-1">
          <mxGeometry relative="1" as="geometry" />
        </mxCell>
        <mxCell id="rbqqUuuyFxj4_pDTY92s-7" style="edgeStyle=orthogonalEdgeStyle;rounded=0;orthogonalLoop=1;jettySize=auto;html=1;exitX=1;exitY=0.5;exitDx=0;exitDy=0;entryX=0.5;entryY=0;entryDx=0;entryDy=0;strokeWidth=3;" edge="1" parent="1" source="hsRt3fMsCCRmdXCvSqXc-1" target="rbqqUuuyFxj4_pDTY92s-5">
          <mxGeometry relative="1" as="geometry" />
        </mxCell>
        <mxCell id="hsRt3fMsCCRmdXCvSqXc-1" value="" style="rhombus;whiteSpace=wrap;html=1;sketch=0;strokeColor=#000000;fillColor=#FFFFFF;strokeWidth=3;" parent="1" vertex="1">
          <mxGeometry x="1036" y="515" width="120" height="120" as="geometry" />
        </mxCell>
        <mxCell id="hsRt3fMsCCRmdXCvSqXc-3" value="Авторизоваться в системе как преподаватель" style="rounded=1;whiteSpace=wrap;html=1;sketch=0;fontSize=23;strokeColor=#000000;strokeWidth=3;fillColor=#FFFFFF;arcSize=50;" parent="1" vertex="1">
          <mxGeometry x="752" y="807" width="240" height="90" as="geometry" />
        </mxCell>
        <mxCell id="hsRt3fMsCCRmdXCvSqXc-4" value="Авторизоваться в системе как учащийся" style="rounded=1;whiteSpace=wrap;html=1;sketch=0;fontSize=23;strokeColor=#000000;strokeWidth=3;fillColor=#FFFFFF;arcSize=50;" parent="1" vertex="1">
          <mxGeometry x="1767.9599999999998" y="814" width="240" height="90" as="geometry" />
        </mxCell>
        <mxCell id="hsRt3fMsCCRmdXCvSqXc-5" value="" style="rhombus;whiteSpace=wrap;html=1;sketch=0;strokeColor=#000000;fillColor=#FFFFFF;strokeWidth=3;" parent="1" vertex="1">
          <mxGeometry x="1827.9599999999998" y="944" width="120" height="120" as="geometry" />
        </mxCell>
        <mxCell id="hsRt3fMsCCRmdXCvSqXc-7" value="Продолжить работу в приложении" style="rounded=1;whiteSpace=wrap;html=1;sketch=0;fontSize=23;strokeColor=#000000;strokeWidth=3;fillColor=#FFFFFF;arcSize=50;" parent="1" vertex="1">
          <mxGeometry x="1783.09" y="1121" width="209.87" height="90" as="geometry" />
        </mxCell>
        <mxCell id="REqLlEheHA_K7ZEJ_UPA-2" style="edgeStyle=orthogonalEdgeStyle;rounded=0;orthogonalLoop=1;jettySize=auto;html=1;exitX=0.5;exitY=0;exitDx=0;exitDy=0;strokeWidth=3;entryX=1;entryY=0.5;entryDx=0;entryDy=0;" parent="1" source="hsRt3fMsCCRmdXCvSqXc-8" target="rbqqUuuyFxj4_pDTY92s-5" edge="1">
          <mxGeometry relative="1" as="geometry">
            <Array as="points">
              <mxPoint x="2204.09" y="708" />
            </Array>
          </mxGeometry>
        </mxCell>
        <mxCell id="hsRt3fMsCCRmdXCvSqXc-8" value="Повторить попытку ввода данных" style="rounded=1;whiteSpace=wrap;html=1;sketch=0;fontSize=23;strokeColor=#000000;strokeWidth=3;fillColor=#FFFFFF;arcSize=50;" parent="1" vertex="1">
          <mxGeometry x="2099.09" y="814" width="210" height="90" as="geometry" />
        </mxCell>
        <mxCell id="hsRt3fMsCCRmdXCvSqXc-9" value="" style="endArrow=classic;html=1;rounded=0;strokeWidth=3;entryX=0.5;entryY=0;entryDx=0;entryDy=0;exitX=0.5;exitY=1;exitDx=0;exitDy=0;" parent="1" source="hsRt3fMsCCRmdXCvSqXc-5" target="hsRt3fMsCCRmdXCvSqXc-7" edge="1">
          <mxGeometry width="50" height="50" relative="1" as="geometry">
            <mxPoint x="1827.9599999999998" y="1004" as="sourcePoint" />
            <mxPoint x="1717.9599999999998" y="1044" as="targetPoint" />
            <Array as="points" />
          </mxGeometry>
        </mxCell>
        <mxCell id="hsRt3fMsCCRmdXCvSqXc-10" value="[Данные введены верно]" style="edgeLabel;html=1;align=center;verticalAlign=middle;resizable=0;points=[];fontSize=23;" parent="hsRt3fMsCCRmdXCvSqXc-9" vertex="1" connectable="0">
          <mxGeometry x="0.2679" y="-8" relative="1" as="geometry">
            <mxPoint x="-158" y="-13" as="offset" />
          </mxGeometry>
        </mxCell>
        <mxCell id="hsRt3fMsCCRmdXCvSqXc-11" value="" style="endArrow=classic;html=1;rounded=0;strokeWidth=3;entryX=0.5;entryY=1;entryDx=0;entryDy=0;exitX=1;exitY=0.5;exitDx=0;exitDy=0;" parent="1" source="hsRt3fMsCCRmdXCvSqXc-5" target="hsRt3fMsCCRmdXCvSqXc-8" edge="1">
          <mxGeometry width="50" height="50" relative="1" as="geometry">
            <mxPoint x="1837.9599999999998" y="1014" as="sourcePoint" />
            <mxPoint x="1732.9599999999998" y="1094" as="targetPoint" />
            <Array as="points">
              <mxPoint x="2204.09" y="1004" />
            </Array>
          </mxGeometry>
        </mxCell>
        <mxCell id="hsRt3fMsCCRmdXCvSqXc-12" value="[Данные введены &lt;br&gt;не верно]" style="edgeLabel;html=1;align=center;verticalAlign=middle;resizable=0;points=[];fontSize=23;" parent="hsRt3fMsCCRmdXCvSqXc-11" vertex="1" connectable="0">
          <mxGeometry x="0.2679" y="-8" relative="1" as="geometry">
            <mxPoint x="-109" y="-52" as="offset" />
          </mxGeometry>
        </mxCell>
        <mxCell id="hsRt3fMsCCRmdXCvSqXc-15" value="" style="endArrow=classic;html=1;rounded=0;strokeWidth=3;entryX=0.5;entryY=0;entryDx=0;entryDy=0;exitX=0.5;exitY=1;exitDx=0;exitDy=0;" parent="1" source="hsRt3fMsCCRmdXCvSqXc-4" target="hsRt3fMsCCRmdXCvSqXc-5" edge="1">
          <mxGeometry width="50" height="50" relative="1" as="geometry">
            <mxPoint x="998.09" y="914" as="sourcePoint" />
            <mxPoint x="998.09" y="954" as="targetPoint" />
            <Array as="points" />
          </mxGeometry>
        </mxCell>
        <mxCell id="hsRt3fMsCCRmdXCvSqXc-21" value="" style="endArrow=classic;html=1;rounded=0;strokeWidth=3;entryX=0.5;entryY=0;entryDx=0;entryDy=0;exitX=0.5;exitY=1;exitDx=0;exitDy=0;" parent="1" source="hsRt3fMsCCRmdXCvSqXc-7" target="hsRt3fMsCCRmdXCvSqXc-23" edge="1">
          <mxGeometry width="50" height="50" relative="1" as="geometry">
            <mxPoint x="1889.87" y="1138" as="sourcePoint" />
            <mxPoint x="1889.87" y="1285" as="targetPoint" />
            <Array as="points" />
          </mxGeometry>
        </mxCell>
        <mxCell id="hsRt3fMsCCRmdXCvSqXc-23" value="Продолжить работу &lt;br&gt;в приложении как учащийся" style="rounded=1;whiteSpace=wrap;html=1;sketch=0;fontSize=23;strokeColor=#000000;strokeWidth=3;fillColor=#FFFFFF;arcSize=50;" parent="1" vertex="1">
          <mxGeometry x="1769.87" y="1285" width="240" height="90" as="geometry" />
        </mxCell>
        <mxCell id="hsRt3fMsCCRmdXCvSqXc-24" value="Продолжить работу &lt;br&gt;в приложении как преподаватель" style="rounded=1;whiteSpace=wrap;html=1;sketch=0;fontSize=23;strokeColor=#000000;strokeWidth=3;fillColor=#FFFFFF;arcSize=50;" parent="1" vertex="1">
          <mxGeometry x="750" y="1285" width="240" height="90" as="geometry" />
        </mxCell>
        <mxCell id="hsRt3fMsCCRmdXCvSqXc-25" value="Перейти в соответствующий дисциплине раздел тестирования" style="rounded=1;whiteSpace=wrap;html=1;sketch=0;fontSize=20;strokeColor=#000000;strokeWidth=3;fillColor=#FFFFFF;arcSize=50;" parent="1" vertex="1">
          <mxGeometry x="1769.87" y="1465" width="240" height="90" as="geometry" />
        </mxCell>
        <mxCell id="hsRt3fMsCCRmdXCvSqXc-26" value="" style="endArrow=classic;html=1;rounded=0;strokeWidth=3;entryX=0.5;entryY=0;entryDx=0;entryDy=0;exitX=0.5;exitY=1;exitDx=0;exitDy=0;" parent="1" source="hsRt3fMsCCRmdXCvSqXc-23" target="hsRt3fMsCCRmdXCvSqXc-25" edge="1">
          <mxGeometry width="50" height="50" relative="1" as="geometry">
            <mxPoint x="1900" y="1148" as="sourcePoint" />
            <mxPoint x="1900" y="1295" as="targetPoint" />
            <Array as="points" />
          </mxGeometry>
        </mxCell>
        <mxCell id="hsRt3fMsCCRmdXCvSqXc-27" value="Ответить на вопросы" style="rounded=1;whiteSpace=wrap;html=1;sketch=0;fontSize=23;strokeColor=#000000;strokeWidth=3;fillColor=#FFFFFF;arcSize=50;" parent="1" vertex="1">
          <mxGeometry x="1769.87" y="1645" width="240" height="90" as="geometry" />
        </mxCell>
        <mxCell id="hsRt3fMsCCRmdXCvSqXc-28" value="" style="endArrow=classic;html=1;rounded=0;strokeWidth=3;entryX=0.5;entryY=0;entryDx=0;entryDy=0;exitX=0.5;exitY=1;exitDx=0;exitDy=0;" parent="1" source="hsRt3fMsCCRmdXCvSqXc-25" target="hsRt3fMsCCRmdXCvSqXc-27" edge="1">
          <mxGeometry width="50" height="50" relative="1" as="geometry">
            <mxPoint x="1889.1" y="1555" as="sourcePoint" />
            <mxPoint x="1889.1" y="1645" as="targetPoint" />
            <Array as="points" />
          </mxGeometry>
        </mxCell>
        <mxCell id="hsRt3fMsCCRmdXCvSqXc-29" value="Получить результат" style="rounded=1;whiteSpace=wrap;html=1;sketch=0;fontSize=23;strokeColor=#000000;strokeWidth=3;fillColor=#FFFFFF;arcSize=50;" parent="1" vertex="1">
          <mxGeometry x="1769.87" y="1825" width="240" height="90" as="geometry" />
        </mxCell>
        <mxCell id="hsRt3fMsCCRmdXCvSqXc-30" value="" style="endArrow=classic;html=1;rounded=0;strokeWidth=3;entryX=0.5;entryY=0;entryDx=0;entryDy=0;exitX=0.5;exitY=1;exitDx=0;exitDy=0;" parent="1" source="hsRt3fMsCCRmdXCvSqXc-27" target="hsRt3fMsCCRmdXCvSqXc-29" edge="1">
          <mxGeometry width="50" height="50" relative="1" as="geometry">
            <mxPoint x="1889.42" y="1735" as="sourcePoint" />
            <mxPoint x="1889.42" y="1825" as="targetPoint" />
            <Array as="points" />
          </mxGeometry>
        </mxCell>
        <mxCell id="hsRt3fMsCCRmdXCvSqXc-31" value="" style="endArrow=classic;html=1;rounded=0;strokeWidth=3;exitX=0.5;exitY=1;exitDx=0;exitDy=0;" parent="1" source="hsRt3fMsCCRmdXCvSqXc-32" edge="1">
          <mxGeometry width="50" height="50" relative="1" as="geometry">
            <mxPoint x="1900" y="1663" as="sourcePoint" />
            <mxPoint x="1105" y="2863" as="targetPoint" />
            <Array as="points" />
          </mxGeometry>
        </mxCell>
        <mxCell id="hsRt3fMsCCRmdXCvSqXc-33" value="" style="endArrow=classic;html=1;rounded=0;strokeWidth=3;exitX=0.5;exitY=1;exitDx=0;exitDy=0;entryX=1;entryY=0.5;entryDx=0;entryDy=0;" parent="1" source="hsRt3fMsCCRmdXCvSqXc-29" target="hsRt3fMsCCRmdXCvSqXc-32" edge="1">
          <mxGeometry width="50" height="50" relative="1" as="geometry">
            <mxPoint x="1890" y="1915" as="sourcePoint" />
            <mxPoint x="1105" y="2945" as="targetPoint" />
            <Array as="points">
              <mxPoint x="1890" y="2883" />
            </Array>
          </mxGeometry>
        </mxCell>
        <mxCell id="hsRt3fMsCCRmdXCvSqXc-32" value="" style="rhombus;whiteSpace=wrap;html=1;sketch=0;strokeColor=#000000;fillColor=#FFFFFF;strokeWidth=3;" parent="1" vertex="1">
          <mxGeometry x="1036" y="2823" width="120" height="120" as="geometry" />
        </mxCell>
        <mxCell id="hsRt3fMsCCRmdXCvSqXc-34" value="" style="endArrow=classic;html=1;rounded=0;strokeWidth=3;exitX=0.5;exitY=1;exitDx=0;exitDy=0;entryX=0;entryY=0.5;entryDx=0;entryDy=0;" parent="1" source="tWUmtZONVveXk1zDMaGu-6" target="hsRt3fMsCCRmdXCvSqXc-32" edge="1">
          <mxGeometry width="50" height="50" relative="1" as="geometry">
            <mxPoint x="870" y="2633" as="sourcePoint" />
            <mxPoint x="880" y="2619" as="targetPoint" />
            <Array as="points">
              <mxPoint x="870" y="2883" />
            </Array>
          </mxGeometry>
        </mxCell>
        <mxCell id="rbqqUuuyFxj4_pDTY92s-3" style="edgeStyle=orthogonalEdgeStyle;rounded=0;orthogonalLoop=1;jettySize=auto;html=1;exitX=0.5;exitY=1;exitDx=0;exitDy=0;entryX=0.49;entryY=0.005;entryDx=0;entryDy=0;entryPerimeter=0;strokeWidth=3;" edge="1" parent="1" source="rbqqUuuyFxj4_pDTY92s-1" target="hsRt3fMsCCRmdXCvSqXc-3">
          <mxGeometry relative="1" as="geometry" />
        </mxCell>
        <mxCell id="rbqqUuuyFxj4_pDTY92s-1" value="" style="rhombus;whiteSpace=wrap;html=1;sketch=0;strokeColor=#000000;fillColor=#FFFFFF;strokeWidth=3;" vertex="1" parent="1">
          <mxGeometry x="810" y="648" width="120" height="120" as="geometry" />
        </mxCell>
        <mxCell id="rbqqUuuyFxj4_pDTY92s-6" style="edgeStyle=orthogonalEdgeStyle;rounded=0;orthogonalLoop=1;jettySize=auto;html=1;exitX=0.5;exitY=1;exitDx=0;exitDy=0;entryX=0.5;entryY=0;entryDx=0;entryDy=0;strokeWidth=3;" edge="1" parent="1" source="rbqqUuuyFxj4_pDTY92s-5" target="hsRt3fMsCCRmdXCvSqXc-4">
          <mxGeometry relative="1" as="geometry" />
        </mxCell>
        <mxCell id="rbqqUuuyFxj4_pDTY92s-5" value="" style="rhombus;whiteSpace=wrap;html=1;sketch=0;strokeColor=#000000;fillColor=#FFFFFF;strokeWidth=3;" vertex="1" parent="1">
          <mxGeometry x="1827.9599999999998" y="648" width="120" height="120" as="geometry" />
        </mxCell>
      </root>
    </mxGraphModel>
  </diagram>
</mxfile>
